<?xml version="1.0" encoding="UTF-8" standalone="no"?><!-- Generator: Adobe Illustrator 15.0.0, SVG Export Plug-In . SVG Version: 6.00 Build 0)  -->
<svg
	xmlns:xlink="http://www.w3.org/1999/xlink"
	style="enable-background:new 0 0 64 64;"
	height="64px"
	id="Capa_1"
	version="1.1"
	viewBox="0 0 64 64"
	width="64px"
	x="0px"
	xmlns="http://www.w3.org/2000/svg"
	y="0px"
    pagecolor="#ffffff"
   bordercolor="#000000"
	xml:space="preserve">
<g>
	<path d="M22.456,34.015c-1.695-0.3-3.653-0.952-4.998-2.378c-1.845-1.958-4.561-1.681-6.287,0.599
		c-1.342,1.767-2.362,5.13-1.206,9.263c1.483,5.31,7.568,15.227,15.553,15.229c0,0,0,0,0.002,0c2.349,0,4.62-0.895,6.752-2.657
		c4.35-3.6,4.047-8.612,2.508-12.635c-0.719,0.157-1.463,0.243-2.228,0.243C27.747,41.678,23.695,38.429,22.456,34.015z"/>
	<path d="M50.117,19.818c-0.808-0.187-1.609-0.281-2.38-0.281c-3.524,0-6.066,1.882-7.85,4.092c1.988,1.91,3.233,4.589,3.233,7.559
		c0,3.067-1.333,5.826-3.44,7.745c0.988,1.629,2.014,3.972,1.638,6.287c-0.259,1.598,0.278,2.63,0.775,3.214
		c0.773,0.91,2.015,1.412,3.493,1.412c2.227,0,5.527-1.229,8.118-4.676c3.071-4.085,6.359-12.676,4.056-18.985
		C56.556,22.893,53.913,20.691,50.117,19.818z"/>
	<circle cx="32.777" cy="31.188" r="8.709"/>
	<path d="M30.726,7.949c-5.163,0-12.431,1.603-15.917,6.122c-1.942,2.518-2.461,5.568-1.543,9.067
		c1.086,4.133,4.205,6.678,8.864,7.39c0.342-5.48,4.897-9.837,10.46-9.837c1.397,0,2.729,0.279,3.949,0.776
		c0.884-0.989,1.983-1.881,3.31-2.321c1.858-0.619,2.881-2.076,2.736-3.898c-0.224-2.778-3.288-6.194-8.528-7.051
		C33.052,8.031,31.932,7.949,30.726,7.949z"/>
</g>
</svg>
